<svg width="48" height="48" viewBox="0 0 48 48" fill="none" xmlns="http://www.w3.org/2000/svg">
<path d="M47.4385 43.4196C47.4385 45.6387 45.6397 47.4375 43.4206 47.4375L4.58133 47.4375C2.36227 47.4375 0.563477 45.6387 0.563477 43.4196L0.563477 21.3214C0.563477 23.5405 0.563477 19.1024 0.563477 21.3214V4.58036C0.500977 2.5 2.00098 0.5625 4.58133 0.5625H30.6229C28.404 0.5625 32.8419 0.5625 30.6229 0.5625L43.4206 0.5625C45.6397 0.5625 47.4385 2.36129 47.4385 4.58036V9.95401V15.3112H36.2577V9.95401C36.2577 7.71632 34.4541 5.93616 32.2398 5.93616L17.5813 5.93616C15.3614 5.93477 13.5635 7.74425 13.5635 9.95401V15.3112C13.5635 17.5 15.3453 19.329 17.5813 19.329L32.2398 19.329C34.5635 19.329 36.2577 17.5 36.2577 15.3112H47.4385V26.6786C47.4385 28.8976 45.6397 30.6964 43.4206 30.6964L23.071 30.6964C22.1463 30.6964 21.3969 31.4459 21.3969 32.3705C21.3969 33.2952 22.1463 34.0446 23.071 34.0446L43.4206 34.0446C45.6397 34.0446 47.4385 35.8434 47.4385 38.0625V43.4196Z" fill="white"/>
</svg>
