<svg width="52" height="52" viewBox="0 0 52 52" fill="none" xmlns="http://www.w3.org/2000/svg">
<path d="M29.1429 29.6667V24.8571C29.1429 23.7526 28.2474 22.8571 27.1429 22.8571L22.3333 22.8571M29.1429 29.6667V29.6667C29.1429 30.6792 28.322 31.5 27.3095 31.5H22.5C21.3954 31.5 20.5 30.6046 20.5 29.5V24.6905C20.5 23.678 21.3208 22.8571 22.3333 22.8571V22.8571M29.1429 29.6667L29.5 29.6667C30.6046 29.6667 31.5 28.7712 31.5 27.6667V22.5C31.5 21.3954 30.6046 20.5 29.5 20.5H24.3333C23.2288 20.5 22.3333 21.3954 22.3333 22.5V22.8571" stroke="#EEF1FF" stroke-width="1.5"/>
</svg>
